<svg width="64" height="64" viewBox="0 0 64 64" fill="none" xmlns="http://www.w3.org/2000/svg">
  <circle cx="32" cy="32" r="30" fill="#6366F1"/>
  <path d="M22 24h20a2 2 0 012 2v8a2 2 0 01-2 2H28l-6 6v-6h-2a2 2 0 01-2-2v-8a2 2 0 012-2z" fill="white"/>
  <!-- Orbit nodes -->
  <circle cx="10" cy="32" r="4" fill="#FACC15"/>
  <circle cx="54" cy="32" r="4" fill="#34D399"/>
  <circle cx="32" cy="10" r="4" fill="#60A5FA"/>
  <circle cx="32" cy="54" r="4" fill="#F472B6"/>
  <!-- Connecting lines -->
  <line x1="32" y1="10" x2="32" y2="24" stroke="white" stroke-width="1"/>
  <line x1="10" y1="32" x2="22" y2="32" stroke="white" stroke-width="1"/>
  <line x1="54" y1="32" x2="42" y2="32" stroke="white" stroke-width="1"/>
  <line x1="32" y1="54" x2="32" y2="42" stroke="white" stroke-width="1"/>
</svg>
